<svg width="40" height="40" viewBox="0 0 40 40" fill="none" xmlns="http://www.w3.org/2000/svg">
<rect width="40" height="40" rx="20" fill="white"/>
<path d="M17 16V15C17 13.3438 18.3125 12 20 12C21.6562 12 23 13.3438 23 15V16H25.5C26.3125 16 27 16.6875 27 17.5V25C27 26.6562 25.6562 28 24 28H16C14.3125 28 13 26.6562 13 25V17.5C13 16.6875 13.6562 16 14.5 16H17ZM18 16H22V15C22 13.9062 21.0938 13 20 13C18.875 13 18 13.9062 18 15V16ZM14.5 17C14.2188 17 14 17.25 14 17.5V25C14 26.125 14.875 27 16 27H24C25.0938 27 26 26.125 26 25V17.5C26 17.25 25.75 17 25.5 17H23V19.5C23 19.7812 22.75 20 22.5 20C22.2188 20 22 19.7812 22 19.5V17H18V19.5C18 19.7812 17.75 20 17.5 20C17.2188 20 17 19.7812 17 19.5V17H14.5Z" fill="#1A1A1A"/>
</svg>
