<svg width="40" height="40" viewBox="0 0 40 40" fill="none" xmlns="http://www.w3.org/2000/svg">
<rect width="40" height="40" rx="20" fill="white"/>
<path d="M24 21C24 23.2188 22.1875 25 20 25C17.7812 25 16 23.2188 16 21C16 18.8125 17.7812 17 20 17C22.1875 17 24 18.8125 24 21ZM20 18C18.3125 18 17 19.3438 17 21C17 22.6562 18.3125 24 20 24C21.6562 24 23 22.6562 23 21C23 19.3438 21.6562 18 20 18ZM26 16.5312C27.4688 17.875 28.4375 19.5 28.9062 20.625C29 20.875 29 21.1562 28.9062 21.4062C28.4375 22.5 27.4688 24.125 26 25.5C24.5312 26.875 22.5 28 20 28C17.4688 28 15.4375 26.875 13.9688 25.5C12.5 24.125 11.5312 22.5 11.0625 21.4062C10.9688 21.1562 10.9688 20.875 11.0625 20.625C11.5312 19.5 12.5 17.875 13.9688 16.5312C15.4375 15.1562 17.4688 14 20 14C22.5 14 24.5312 15.1562 26 16.5312ZM12 21C12.4062 22 13.3125 23.5 14.6562 24.75C16 26 17.7812 27 20 27C22.1875 27 23.9688 26 25.3125 24.75C26.6562 23.5 27.5625 22 28 21C27.5625 20 26.6562 18.5 25.3125 17.25C23.9688 16 22.1875 15 20 15C17.7812 15 16 16 14.6562 17.25C13.3125 18.5 12.4062 20 12 21Z" fill="#1A1A1A"/>
</svg>
