<svg width="40" height="40" viewBox="0 0 40 40" fill="none" xmlns="http://www.w3.org/2000/svg">
<rect width="40" height="40" rx="20" fill="white"/>
<path d="M19.9688 16L20.3438 15.6562C21.375 14.625 22.8438 14.1562 24.25 14.4062C26.4062 14.75 28 16.625 28 18.8125V18.9688C28 20.2812 27.4375 21.5312 26.5 22.4062L20.8438 27.6875C20.625 27.9062 20.3125 28 20 28C19.6562 28 19.3438 27.9062 19.125 27.6875L13.4688 22.4062C12.5312 21.5312 12 20.2812 12 18.9688V18.8125C12 16.625 13.5625 14.75 15.7188 14.4062C17.125 14.1562 18.5938 14.625 19.625 15.6562L19.9688 16ZM19.9688 17.4375L18.9062 16.3438C18.125 15.5625 17 15.1875 15.875 15.375C14.2188 15.6562 12.9688 17.0938 12.9688 18.8125V18.9688C12.9688 20 13.4062 20.9688 14.1562 21.6562L19.8125 26.9375C19.8438 27 19.9062 27 19.9688 27C20.0625 27 20.125 27 20.1562 26.9375L25.8125 21.6562C26.5625 20.9688 27 20 27 18.9688V18.8125C27 17.0938 25.75 15.6562 24.0938 15.375C22.9688 15.1875 21.8438 15.5625 21.0625 16.3438L19.9688 17.4375Z" fill="#1A1A1A"/>
</svg>
